<svg width="14" height="16" viewBox="0 0 14 16" fill="none" xmlns="http://www.w3.org/2000/svg">
<path d="M13.5 12.75V13.5H0V12.75L1.5 11.25V6.75C1.5 4.425 3.0225 2.3775 5.25 1.7175V1.5C5.25 1.10218 5.40804 0.720644 5.68934 0.43934C5.97064 0.158035 6.35218 0 6.75 0C7.14782 0 7.52936 0.158035 7.81066 0.43934C8.09196 0.720644 8.25 1.10218 8.25 1.5V1.7175C10.4775 2.3775 12 4.425 12 6.75V11.25L13.5 12.75ZM8.25 14.25C8.25 14.6478 8.09196 15.0294 7.81066 15.3107C7.52936 15.592 7.14782 15.75 6.75 15.75C6.35218 15.75 5.97064 15.592 5.68934 15.3107C5.40804 15.0294 5.25 14.6478 5.25 14.25" fill="#C7C7C7"/>
</svg>
