<svg width="12" height="13" viewBox="0 0 12 13" fill="none" xmlns="http://www.w3.org/2000/svg">
<path d="M6.61681 0.17713C7.05462 0.175449 7.49244 0.179853 7.93014 0.19034L8.04653 0.194543C8.18093 0.199347 8.31352 0.205351 8.47371 0.212556C9.11208 0.242578 9.54766 0.343452 9.92984 0.491761C10.3258 0.644273 10.6594 0.850824 10.993 1.18467C11.298 1.48465 11.534 1.84752 11.6847 2.24805C11.8329 2.63053 11.9337 3.06705 11.9637 3.70591C11.9709 3.86563 11.9769 3.99893 11.9817 4.13343L11.9853 4.24991C11.996 4.68775 12.0006 5.12571 11.9991 5.56368L11.9997 6.0116V6.79818C12.0012 7.23634 11.9966 7.67451 11.9859 8.11254L11.9823 8.22903C11.9775 8.36353 11.9715 8.49622 11.9643 8.65654C11.9343 9.29541 11.8323 9.73133 11.6847 10.1138C11.5345 10.5148 11.2984 10.8779 10.993 11.1778C10.693 11.483 10.3302 11.7192 9.92984 11.8701C9.54766 12.0184 9.11208 12.1193 8.47371 12.1493C8.31352 12.1565 8.18093 12.1625 8.04653 12.1673L7.93014 12.1709C7.49245 12.1816 7.05463 12.1862 6.61681 12.1847L6.16923 12.1853H5.38387C4.94605 12.1868 4.50823 12.1822 4.07054 12.1715L3.95414 12.1679C3.81172 12.1627 3.66932 12.1567 3.52697 12.1499C2.8886 12.1199 2.45302 12.0178 2.07024 11.8701C1.66987 11.7196 1.30722 11.4833 1.00769 11.1778C0.702337 10.8777 0.466057 10.5146 0.31533 10.1138C0.167138 9.73133 0.0663428 9.29541 0.0363443 8.65654C0.0296624 8.51406 0.0236626 8.37156 0.0183452 8.22903L0.0153455 8.11254C0.00428419 7.67451 -0.000716091 7.23635 0.000346183 6.79818V5.56368C-0.00132831 5.12571 0.00307193 4.68775 0.0135456 4.24991L0.0177453 4.13343C0.0225451 3.99893 0.0285447 3.86563 0.0357444 3.70591C0.0657428 3.06645 0.166538 2.63113 0.31473 2.24805C0.465546 1.84733 0.702289 1.48455 1.00829 1.18527C1.30762 0.879496 1.67004 0.642815 2.07024 0.491761C2.45302 0.343452 2.888 0.242578 3.52697 0.212556L3.95414 0.194543L4.07054 0.191541C4.50802 0.180477 4.94564 0.175472 5.38327 0.17653L6.61681 0.17713ZM6.00004 3.17933C5.60256 3.1737 5.20793 3.24719 4.83908 3.39553C4.47023 3.54386 4.13452 3.76408 3.85146 4.04339C3.56839 4.3227 3.34361 4.65553 3.19019 5.02254C3.03677 5.38954 2.95777 5.7834 2.95777 6.18123C2.95777 6.57905 3.03677 6.97292 3.19019 7.33992C3.34361 7.70692 3.56839 8.03975 3.85146 8.31906C4.13452 8.59837 4.47023 8.81859 4.83908 8.96693C5.20793 9.11526 5.60256 9.18875 6.00004 9.18313C6.79565 9.18313 7.55867 8.86682 8.12125 8.3038C8.68383 7.74078 8.99988 6.97716 8.99988 6.18093C8.99988 5.3847 8.68383 4.62107 8.12125 4.05805C7.55867 3.49503 6.79565 3.17933 6.00004 3.17933ZM6.00004 4.38021C6.23913 4.3758 6.4767 4.41912 6.69888 4.50763C6.92106 4.59614 7.12338 4.72807 7.29404 4.89571C7.4647 5.06336 7.60026 5.26335 7.69282 5.48402C7.78537 5.70469 7.83306 5.9416 7.8331 6.18092C7.83314 6.42024 7.78553 6.65717 7.69305 6.87787C7.60057 7.09857 7.46507 7.29861 7.29447 7.46631C7.12387 7.63401 6.92158 7.76601 6.69944 7.8546C6.47729 7.94318 6.23973 7.98658 6.00064 7.98225C5.52327 7.98225 5.06546 7.79247 4.72791 7.45465C4.39036 7.11684 4.20073 6.65867 4.20073 6.18093C4.20073 5.70319 4.39036 5.24501 4.72791 4.9072C5.06546 4.56939 5.52327 4.37961 6.00064 4.37961L6.00004 4.38021ZM9.14988 2.27867C8.95632 2.28642 8.77327 2.36883 8.63907 2.50862C8.50486 2.64842 8.42991 2.83476 8.42991 3.02862C8.42991 3.22248 8.50486 3.40882 8.63907 3.54862C8.77327 3.68841 8.95632 3.77081 9.14988 3.77857C9.34878 3.77857 9.53954 3.69949 9.68018 3.55874C9.82083 3.41798 9.89984 3.22708 9.89984 3.02802C9.89984 2.82896 9.82083 2.63805 9.68018 2.4973C9.53954 2.35654 9.34878 2.27747 9.14988 2.27747V2.27867Z" fill="white"/>
</svg>
