<svg width="26" height="20" viewBox="0 0 26 20" fill="none" xmlns="http://www.w3.org/2000/svg">
<path d="M25.5 2.35294C24.5798 2.76471 23.588 3.03529 22.5602 3.16471C23.6119 2.54118 24.4245 1.55294 24.8069 0.364706C23.815 0.952941 22.7156 1.36471 21.5564 1.6C20.6123 0.588235 19.2859 0 17.7801 0C14.9718 0 12.6773 2.25882 12.6773 5.04706C12.6773 5.44706 12.7251 5.83529 12.8088 6.2C8.55449 5.98824 4.76625 3.97647 2.24474 0.929412C1.80258 1.67059 1.55163 2.54118 1.55163 3.45882C1.55163 5.21176 2.4479 6.76471 3.83413 7.64706C2.98566 7.64706 2.19694 7.41176 1.50382 7.05882V7.09412C1.50382 9.54118 3.27247 11.5882 5.61472 12.0471C4.86272 12.2497 4.07325 12.2778 3.30832 12.1294C3.6329 13.1323 4.26857 14.0099 5.12598 14.6387C5.98339 15.2676 7.01942 15.6161 8.08843 15.6353C6.27633 17.0476 4.03011 17.811 1.71893 17.8C1.31262 17.8 0.90631 17.7765 0.5 17.7294C2.77055 19.1647 5.47132 20 8.36329 20C17.7801 20 22.9546 12.3059 22.9546 5.63529C22.9546 5.41177 22.9546 5.2 22.9426 4.97647C23.9465 4.27059 24.8069 3.37647 25.5 2.35294Z" fill="white"/>
</svg>
