<svg width="16" height="13" viewBox="0 0 16 13" fill="none" xmlns="http://www.w3.org/2000/svg">
<path d="M13.538 1.17443C12.5247 0.709195 11.4275 0.371525 10.2846 0.176426C10.2746 0.176111 10.2646 0.177963 10.2554 0.181852C10.2462 0.185741 10.2379 0.191574 10.2313 0.198938C10.0941 0.446563 9.93411 0.769225 9.82744 1.01685C8.61522 0.836759 7.38242 0.836759 6.1702 1.01685C6.06353 0.761721 5.90353 0.446563 5.75876 0.198938C5.75114 0.18393 5.72828 0.176426 5.70542 0.176426C4.56254 0.371525 3.47298 0.709195 2.452 1.17443C2.44438 1.17443 2.43676 1.18193 2.42914 1.18944C0.356706 4.24348 -0.214738 7.21498 0.0671745 10.1565C0.0671745 10.1715 0.0747937 10.1865 0.0900322 10.194C1.4615 11.1845 2.77963 11.7848 4.08252 12.1825C4.10538 12.19 4.12824 12.1825 4.13586 12.1675C4.44063 11.7548 4.71492 11.3196 4.95112 10.8618C4.96636 10.8318 4.95112 10.8018 4.92064 10.7943C4.48634 10.6292 4.0749 10.4341 3.67108 10.209C3.64061 10.194 3.64061 10.149 3.66346 10.1264C3.74728 10.0664 3.83109 9.99888 3.9149 9.93885C3.93014 9.92385 3.953 9.92385 3.96823 9.93135C6.58926 11.1094 9.416 11.1094 12.0065 9.93135C12.0218 9.92385 12.0446 9.92385 12.0599 9.93885C12.1437 10.0064 12.2275 10.0664 12.3113 10.134C12.3418 10.1565 12.3418 10.2015 12.3037 10.2165C11.9075 10.4491 11.4884 10.6367 11.0541 10.8018C11.0237 10.8093 11.016 10.8468 11.0237 10.8693C11.2675 11.3271 11.5418 11.7623 11.8389 12.175C11.8618 12.1825 11.8846 12.19 11.9075 12.1825C13.218 11.7848 14.5361 11.1845 15.9076 10.194C15.9228 10.1865 15.9305 10.1715 15.9305 10.1565C16.2657 6.75725 15.3743 3.80826 13.5685 1.18944C13.5609 1.18193 13.5533 1.17443 13.538 1.17443ZM5.34732 8.36306C4.56254 8.36306 3.90728 7.6502 3.90728 6.77226C3.90728 5.89431 4.5473 5.18145 5.34732 5.18145C6.15496 5.18145 6.79498 5.90182 6.78736 6.77226C6.78736 7.6502 6.14734 8.36306 5.34732 8.36306ZM10.6579 8.36306C9.87316 8.36306 9.2179 7.6502 9.2179 6.77226C9.2179 5.89431 9.85792 5.18145 10.6579 5.18145C11.4656 5.18145 12.1056 5.90182 12.098 6.77226C12.098 7.6502 11.4656 8.36306 10.6579 8.36306Z" fill="white"/>
</svg>
