<svg width="28" height="18" viewBox="0 0 28 18" fill="none" xmlns="http://www.w3.org/2000/svg">
<path d="M11.3 12.8571L18.3065 9L11.3 5.14286V12.8571ZM26.906 2.79C27.0815 3.39429 27.203 4.20429 27.284 5.23286C27.3785 6.26143 27.419 7.14857 27.419 7.92L27.5 9C27.5 11.8157 27.284 13.8857 26.906 15.21C26.5685 16.3671 25.7855 17.1129 24.5705 17.4343C23.936 17.6014 22.775 17.7171 20.993 17.7943C19.238 17.8843 17.6315 17.9229 16.1465 17.9229L14 18C8.3435 18 4.82 17.7943 3.4295 17.4343C2.2145 17.1129 1.4315 16.3671 1.094 15.21C0.9185 14.6057 0.797 13.7957 0.716 12.7671C0.6215 11.7386 0.581 10.8514 0.581 10.08L0.5 9C0.5 6.18429 0.716 4.11429 1.094 2.79C1.4315 1.63286 2.2145 0.887143 3.4295 0.565714C4.064 0.398571 5.225 0.282857 7.007 0.205714C8.762 0.115714 10.3685 0.0771428 11.8535 0.0771428L14 0C19.6565 0 23.18 0.205714 24.5705 0.565714C25.7855 0.887143 26.5685 1.63286 26.906 2.79Z" fill="white"/>
</svg>
